<svg version="1.1" viewBox="0 0 300 228" xmlns="http://www.w3.org/2000/svg" xmlns:xlink="http://www.w3.org/1999/xlink">
 <g>
  <image width="300" height="228" xlink:href="sarolangun.jpg" preserveAspectRatio="none"/>
  <path d="m85.599 125.04c1.0537 1.4049-0.2735 3.3976 0.39446 4.7336 0.19726 0.39452 1.1275 1.6338 0.78893 1.9723-0.09298 0.093-0.30149-0.093-0.39446 0-0.15668 0.15667-0.53554 1.86-0.78893 2.3668-0.27181 0.54361-0.92512 0.53066-1.1834 0.78892-0.18595 0.18596 0.18595 0.60298 0 0.78893-0.37291 0.37291-2.0368 0.0645-2.3668 0.39447-0.62062 0.62062 0.8836 0.0552 0.39446 0.78892-0.34769 0.52153-1.1353 1.9242-1.5779 2.3668-0.09298 0.093-0.33566-0.1176-0.39446 0-0.11761 0.23522 0.11761 0.55372 0 0.78893-0.0588 0.11761-0.30149-0.093-0.39446 0-0.32872 0.32872 0.32872 1.6436 0 1.9723-0.09298 0.093-0.30149-0.093-0.39446 0-0.19723 0.19723 0.19723 0.98616 0 1.1834-0.09298 0.093-0.30149-0.093-0.39446 0-0.61528 0.61528 0.09573 4.1361 0.39446 4.7336 0.82083 1.6417-0.02723-0.4217 0.78893 0.39446 0.17254 0.17254-0.39446 1.798-0.39446 2.3668 0 0.58555-0.08219 6.6237 0 6.7059 0.09298 0.093 0.30149-0.093 0.39446 0 0.13149 0.13149 0.26298 1.0519 0.39446 1.1834 0.09298 0.093 0.30149-0.093 0.39446 0 0.13149 0.13149 0.26298 1.0519 0.39446 1.1834 0.09298 0.093 0.30149-0.093 0.39446 0 0.47658 0.47657-0.12913 3.0266 0.39446 3.5502 0.09298 0.093 0.30149-0.093 0.39446 0 0.1653 0.1653 0.27493 0.94432 0.39446 1.1834 0.82083 1.6417-0.02723-0.4217 0.78893 0.39446 0.22863 0.22863 0.5603 1.3492 0.78893 1.5779 0.19723 0.19723 0.5917 0.19723 0.78893 0.39446 0.32735 0.32735 0.66363 1.847 0.78893 1.9723 0.09298 0.093 0.33566-0.11761 0.39446 0 0.11761 0.23521-0.11761 0.55371 0 0.78893 0.0588 0.1176 0.30149-0.093 0.39446 0 0.18595 0.18595-0.18595 0.60297 0 0.78892 0.09298 0.093 0.33566-0.1176 0.39446 0 0.17641 0.35282-0.27893 0.90447 0 1.1834 0.09298 0.093 0.30149-0.093 0.39446 0 0.1653 0.16529 0.27493 0.94432 0.39446 1.1834 0.29402 0.58803 0.06699 0.64878 0.53187 1.1137 0.2079 0.2079 0.38787-1.2554-0.16339 0.64945-0.35581 1.2294 0.65181 0.0612-0.55991 0.76501-3.4536 2.006-0.83994 0.47556-1.3864 1.022-0.81616 0.81616 1.2472-0.0319-0.39446 0.78893-0.23521 0.1176-0.60298-0.18596-0.78893 0-0.67293 0.67292-1.925 2.3195-2.3668 2.7612-0.09298 0.093-0.30149-0.093-0.39446 0-0.39446 0.39447 0 1.5779-0.39446 1.9723-0.09298 0.093-0.30149-0.093-0.39446 0-0.18595 0.18595 0.18595 0.60298 0 0.78893-0.2079 0.2079-0.58103 0.18656-0.78893 0.39446-0.38907 0.38907-0.10699 1.6848-0.39446 1.9723-0.19723 0.19723-0.5917 0.19723-0.78893 0.39446-0.09298 0.093 0.09298 0.30149 0 0.39447-0.5917 0.59169-2.9585-0.5917-3.5502 0-0.13149 0.13149-0.26298 1.0519-0.39446 1.1834-0.19723 0.19723-0.5917 0.19723-0.78893 0.39446-0.53861 0.53861 0.01294 7.0874-0.39446 7.4948-0.39316 0.39316-2.5763 0.39447-3.5502 0.39447-1.5626 0-3.9817 0.35743-5.128-0.78893-0.09298-0.093 0.09298-0.30149 0-0.39447-0.18235-0.18234-0.94522 0.11909-1.1834 0-0.31021-0.1551-1.3965-0.60757-1.5779-0.78892-0.09298-0.093 0.09298-0.30149 0-0.39447-0.18595-0.18595-0.60298 0.18596-0.78893 0-0.19723-0.19723-0.19723-0.59169-0.39446-0.78892-0.13149-0.13149-1.0519-0.26298-1.1834-0.39447-0.08559-0.0856-0.31756-0.75047-0.39446-0.78892-0.23521-0.11761-0.55372 0.1176-0.78893 0-0.18342-0.0917-0.59424-0.98871-0.78893-1.1834-0.40401-0.40401-6.6039-1.2344-7.4948-0.78892-1.0774 0.5387-0.28394 2.3982-0.78893 3.1557-0.2063 0.30944-0.62261 0.45628-0.78893 0.78892-0.26098 0.52197 0.0027 2.3641-0.39446 2.7612-0.09298 0.093-0.30149-0.093-0.39446 0-0.18595 0.18595 0.18595 0.60297 0 0.78893-0.26298 0.26297-0.92042 0.13148-1.1834 0.39446-0.69559 0.69559 0.4576 3.4239 0 4.3391-0.41138 0.82275-1.0773 0.68288-1.5779 1.1834-0.24164 0.24164-0.33581 1.0324-0.78893 1.1834-0.90886 0.30296-1.8766 0.51991-2.7612 1.1834-1.0075 0.75562-0.99618 0.53263-1.9723 1.1834-0.90623 0.60416 0.16915 0.22532-0.78893 1.1834-0.38907 0.38906-1.2904 0.50145-1.5779 0.78892-0.18595 0.18595 0.18595 0.60298 0 0.78893-0.19763 0.19763-0.92479 0.53032-1.1834 0.78893-0.19723 0.19723-0.19723 0.59169-0.39446 0.78892-0.14753 0.14754-3.4026 0.14754-3.5502 0-0.09298-0.093 0.09298-0.30148 0-0.39446-0.18595-0.18595-0.55372 0.11761-0.78893 0-0.16632-0.0832-0.22814-0.3113-0.39446-0.39446-0.41478-0.20739-1.4985 0-1.9723 0-1.0979 0-1.4715 1.0771-1.9723 1.5778-0.18595 0.18595-0.60298-0.18595-0.78893 0s0.18595 0.60298 0 0.78893c-0.36846 0.36846-1.6039 0.42047-1.9723 0.78893-0.09298 0.093 0.09298 0.30148 0 0.39446-0.13149 0.13149-1.0519 0.26298-1.1834 0.39446-0.26556 0.26556-0.20806 0.4985-0.78893 0.78893-0.23521 0.11761-0.60298-0.18595-0.78893 0-0.09298 0.093 0.09298 0.30149 0 0.39447-0.18595 0.18595-0.60298-0.18596-0.78893 0-0.09298 0.093 0.09298 0.30148 0 0.39446-0.13149 0.13149-1.0519 0.26297-1.1834 0.39446-0.09298 0.093 0.09298 0.30149 0 0.39447-0.32872 0.32872-1.2491 0.0657-1.5779 0.39446-0.09298 0.093 0.09298 0.30149 0 0.39446-0.09298 0.093-0.30149-0.093-0.39446 0-0.09298 0.093 0.09298 0.30149 0 0.39447-0.09298 0.093-0.27686-0.0588-0.39446 0-0.4992 0.2496-1.2869 1.7849-1.5779 2.3668-0.82083 1.6417 0.02723-0.4217-0.78893 0.39446-0.58606 0.58606-1.1144 1.9033-1.5779 2.3668-0.09298 0.093-0.30149-0.093-0.39446 0-0.32872 0.32872-0.06574 1.2491-0.39446 1.5779-0.18595 0.18595-0.60298-0.18595-0.78893 0-0.1253 0.1253-0.46158 1.645-0.78893 1.9723-0.18595 0.18595-0.60298-0.18595-0.78893 0s0.18595 0.60297 0 0.78893c-0.09298 0.093-0.30149-0.093-0.39446 0-0.32513 0.32513-1.2003 2.7443-1.9723 1.9723-0.070223-0.0702-0.72957-2.3074-0.78893-2.3668-0.092976-0.093-0.30149 0.093-0.39446 0-0.38252-0.38252-0.49599-2.8628-0.78893-3.1557-0.092976-0.093-0.30149 0.093-0.39446 0-0.18595-0.18595 0.18595-0.60297 0-0.78893-0.092976-0.093-0.30149 0.093-0.39446 0-0.19723-0.19723 0.19723-0.98615 0-1.1834-0.092976-0.093-0.30149 0.093-0.39446 0-0.36704-0.36703 0.29922-5.4138 0-6.3114-0.51387-1.5416 0.00164 1.1883-0.78893-1.1834-0.15731-0.47192-0.69896-7.1903-0.39446-7.4948 1.053-1.053 3.1291-1.919 3.9446-3.5502 0.40472-0.80944-1.2321-2.9074-1.5779-3.9446-0.26145-0.78434 0.32221-4.8058 0-5.128-0.46279-0.4628-1.4764-1.082-1.9723-1.5779-0.25827-0.25827-0.24532-0.91158-0.78893-1.1834-0.11761-0.0588-0.30149 0.093-0.39446 0-0.48045-0.48045-0.18478-0.88131-0.78893-1.1834-0.11761-0.0588-0.30149 0.093-0.39446 0-0.18595-0.18595 0.18595-0.60297 0-0.78893-0.41619-0.41619-0.78362-0.38385-1.1834-1.1834-0.11761-0.23521 0.18595-0.60297 0-0.78893-0.039446-0.0394-0.88097-0.30242-0.39446-0.78892 0.82761-0.82761 2.9276-0.28039 3.9446-0.78893 0.95109-0.47555 0.6665-1.061 1.1834-1.5778 0.18595-0.18596 0.60298 0.18595 0.78893 0 0.092976-0.093-0.092976-0.30149 0-0.39447 0.29515-0.29515 1.2049-0.20798 1.5779-0.39446 0.076908-0.0385 0.30887-0.70334 0.39446-0.78893 0.19723-0.19723 0.98616 0.19723 1.1834 0 0.19763-0.19763 0.53032-0.92479 0.78893-1.1834 0.09298-0.093 0.30149 0.093 0.39446 0 0.79609-0.79609-1.2279-6.2669-0.39446-7.1004 0.32872-0.32872 0.85467-0.4602 1.1834-0.78892 0.09298-0.093-0.09298-0.30149 0-0.39447 0.0596-0.0596 2.751-0.77865 2.7612-0.78892 0.2586-0.25861 0.5913-0.98577 0.78893-1.1834 0.13149-0.13148 1.0519-0.26297 1.1834-0.39446 0.26374-0.26374-0.26374-0.52519 0-0.78893 0.19723-0.19723 0.5917-0.19723 0.78893-0.39446 0.6323-0.6323-0.41596-3.1127 0-3.9446 0.25542-0.51083 1.1345-0.49334 1.5779-0.78892 0.62241-0.41494 0.88001-1.2745 1.1834-1.5779 0.18595-0.18595 0.60298 0.18595 0.78893 0s-0.11761-0.55371 0-0.78893c0.15511-0.31021 0.60757-1.3965 0.78893-1.5778 0.09298-0.093 0.30149 0.093 0.39446 0 0.2586-0.2586 0.19684-1.3802 0.39446-1.5779 0.09298-0.093 0.30149 0.093 0.39446 0 0.18595-0.18595-0.18595-0.60297 0-0.78892 0.19723-0.19723 0.5917-0.19723 0.78893-0.39447 0.38323-0.38323-0.27924-7.3796-0.39446-7.4948-0.26298-0.26297-0.92042-0.13148-1.1834-0.39446-0.17291-0.17291-1.3104-1.8319-1.5779-2.3668-0.45439-0.90878-0.53587-2.538-0.78893-3.5502-0.11498-0.45994-0.63901-0.73364-0.78893-1.1834-0.07437-0.22309 0.15843-1.025 0-1.1834-0.09298-0.093-0.30149 0.093-0.39446 0-0.16594-0.16594 0.07224-1.4334 0-1.5778-0.0588-0.11761-0.33566 0.1176-0.39446 0-0.21038-0.42076 0.21038-1.1571 0-1.5779-0.08316-0.16632-0.34936-0.21406-0.39446-0.39446-0.27633-1.1053-0.25648-5.266 0-5.5225 0.05003-0.05 4.2065 0.39446 5.5225 0.39446 0.36933 0 6.2562 0.0552 6.3114 0 0.09298-0.093-0.09298-0.30149 0-0.39446 0.23278-0.23278 2.3109 0.028 3.1557-0.39446 0.89921-0.44961 2.2085 0.0792 3.1557-0.39447 0.64014-0.32007 2.6452 0.11601 3.1557-0.39446 0.09298-0.093-0.11761-0.33566 0-0.39447 1.2392-0.61961 7.6293 0.65446 8.2837 0 0.09298-0.093-0.09298-0.30148 0-0.39446 0.18595-0.18595 0.60298 0.18595 0.78893 0 0.55046-0.55046-0.22198-1.4669 0.78893-1.9723 0.23817-0.11908 1.001 0.18235 1.1834 0 0.19723-0.19723 0.19723-0.59169 0.39446-0.78893 0.18595-0.18595 0.60298 0.18596 0.78893 0 0.6435-0.6435 0.22393-5.7464 0.39446-5.917 0.09298-0.093 0.33566 0.11761 0.39446 0 0.11761-0.23521-0.14587-0.57012 0-0.78893 0.16309-0.24463 0.54429-0.23137 0.78893-0.39446 0.5528-0.36854 1.2411-1.6356 1.5779-1.9723 0.31484-0.31485 1.5585 0.20692 1.9723 0 1.1223-0.56115 1.7602-0.78893 3.1557-0.78893 0.57452 0 2.5749-0.97523 3.1557-0.39446 0.69066 0.69065-0.64863 7.3809 0 8.6782 0.39977 0.79953 0.7672 0.7672 1.1834 1.1834 0.18595 0.18595-0.18595 0.60298 0 0.78893 0.13149 0.13149 1.0519 0.26297 1.1834 0.39446 0.19763 0.19763 0.53032 0.92479 0.78893 1.1834 0.09298 0.093 0.30149-0.093 0.39446 0 0.09298 0.093-0.09298 0.30149 0 0.39447 0.18595 0.18595 0.60298-0.18596 0.78893 0 0.09298 0.093-0.09298 0.30148 0 0.39446 0.19723 0.19723 0.98616-0.19723 1.1834 0 0.09298 0.093-0.09298 0.30149 0 0.39446 0.80396 0.80397 2.4369-1.3382 3.1557-1.5778 0.24948-0.0832 0.53945 0.0832 0.78893 0 0.25173-0.0839 1.9295-1.535 1.9723-1.5779 0.09298-0.093-0.09298-0.30148 0-0.39446 0.25021-0.25021 1.2494 0.16421 1.5779 0 1.2624-0.6312 1.9967-0.99833 3.1557-1.5778 0.41893-0.20947 1.2262-0.0428 1.5779-0.39447 0.10442-0.10441 0.55786-1.5091 1.7412-2.4604 1.509 0.29268 2.3559 1.6119 2.9923 2.4604z" style="fill:#f00;stroke-width:1.8;stroke:#000"/>
  <path d="m146.72 186.32c2.8597-0.57912 0.40195-3.4702 1.6736-4.7418 0.30349-0.30349 1.1325-0.85357 1.3946-1.1157 0.0657-0.0657-0.0657-0.21318 0-0.27892 0.13946-0.13947 0.69732 0.13946 0.83678 0 0.23244-0.23244 0.32542-0.60435 0.55786-0.83679 0.57711-0.57711-0.0226 0.88191 0.55786-0.27893 0.24544-0.49089-0.0974-1.8551 0.27892-2.2314 0.0658-0.0657 0.21319 0.0657 0.27893 0 0.18595-0.18595-0.18595-0.92976 0-1.1157 0.0658-0.0658 0.21319 0.0657 0.27893 0 0.0951-0.0951 0.43623-4.3056 0.27893-4.4628-0.0658-0.0657-0.21319 0.0657-0.27893 0-0.18595-0.18595 0.18595-0.92976 0-1.1157-0.0657-0.0657-0.21318 0.0657-0.27893 0-0.13946-0.13946 0.13947-0.69732 0-0.83678-0.0657-0.0658-0.21318 0.0657-0.27893 0-0.13148-0.13149 0.13149-0.42637 0-0.55786-0.0657-0.0657-0.19576 0.0416-0.27892 0-0.13963-0.0698-1.3192-1.8016-1.3946-1.9525-0.16693-0.33385-0.0978-0.75335-0.27893-1.1157-0.27694-0.55388 0-5.9439 0-6.9732 0-0.66943-0.0187-0.87419-0.27893-1.3946-0.26584-0.53169 0-5.7062 0-6.6943 0-0.2184-0.13918-1.2555 0-1.3946 0.0657-0.0657 0.21318 0.0658 0.27893 0 0.23244-0.23243-0.23244-1.1622 0-1.3946 0.0657-0.0657 0.21318 0.0657 0.27893 0 0.13148-0.13149-0.0832-0.39154 0-0.55786 0.0588-0.11761 0.22012-0.16132 0.27892-0.27893 0.14632-0.29263-0.22262-1.172 0-1.3946 0.0657-0.0657 0.23735 0.0832 0.27893 0 0.22314-0.44628-0.22314-1.2273 0-1.6736 0.2575-0.51499 0.0364-1.1885 0.27893-1.6736 0.21044-0.42088 0.3844-0.59535 0.55786-1.1157 0.0942-0.28257-0.1991-1.1955 0-1.3946 0.0657-0.0657 0.21318 0.0657 0.27892 0 0.18596-0.18596-0.18595-0.92976 0-1.1157 0.0658-0.0657 0.21319 0.0657 0.27893 0 0.18595-0.18595 0.093-0.65083 0.27893-0.83678 0.13946-0.13946 0.41839-0.13946 0.55786-0.27893 0.13946-0.13946-0.13947-0.69732 0-0.83678 0.0657-0.0658 0.21318 0.0657 0.27892 0 0.13149-0.13149-0.0832-0.39154 0-0.55786 0.58042-1.1608-0.0192 0.29819 0.55786-0.27893 0.38435-0.38434 0.17351-2.9628 0.55786-3.3471 0.0657-0.0658 0.21318 0.0657 0.27892 0 0.13149-0.13149 0-0.37191 0-0.55786 0-0.39951 0.25428-2.2561 0-2.5104-0.0657-0.0657-0.21318 0.0658-0.27892 0-0.13149-0.13149 0.13148-0.42637 0-0.55785-0.0658-0.0658-0.21319 0.0657-0.27893 0-0.13149-0.13149 0.13149-0.42637 0-0.55786-0.57711-0.57711 0.0226 0.8819-0.55786-0.27893-0.0842-0.16841 0.12894-0.70784 0-0.83678-0.0657-0.0658-0.21318 0.0657-0.27893 0-0.22263-0.22263 0.14632-1.102 0-1.3946-0.17506-0.35012-0.10386-0.48667-0.27892-0.83679-0.0416-0.0832-0.23735 0.0832-0.27893 0-0.12474-0.24948 0.19723-0.63955 0-0.83678-0.0658-0.0657-0.21319 0.0657-0.27893 0-0.18595-0.18595 0.18595-0.92976 0-1.1157-0.0657-0.0657-0.21318 0.0657-0.27893 0-0.18618-0.18619-0.0421-3.6682-0.27893-3.905-0.0657-0.0658-0.21318 0.0657-0.27892 0-0.13149-0.13149 0.13148-0.42637 0-0.55786-0.0657-0.0657-0.21319 0.0657-0.27893 0-0.17693-0.17693 0.11611-0.88348 0-1.1157-0.13844-0.27688-0.2485-1.0853-0.27893-1.1157-0.0657-0.0657-0.21318 0.0657-0.27893 0-0.28611-0.28611 0.19121-1.2912 0-1.6736-0.34467-0.68934-0.27893 0.0963-0.27893-0.55785 0-1.0849-0.54431 1.1022-0.55785 1.1157-0.0658 0.0657-0.21319-0.0657-0.27893 0-0.18595 0.18595 0.18595 0.92976 0 1.1157-0.0657 0.0657-0.21318-0.0657-0.27893 0-0.13148 0.13149 0.13149 0.42637 0 0.55785-0.0657 0.0657-0.19576-0.0416-0.27893 0-0.37358 0.1868-0.38649 0.66542-0.55785 0.83679-0.26186 0.26186-1.0852 0.80625-1.3946 1.1157-0.13974 0.13974-0.375 0.65392-0.55786 0.83678-0.0657 0.0658-0.21318-0.0657-0.27892 0-0.093 0.093-0.18596 0.74381-0.27893 0.83679-0.13149 0.13149-0.42637-0.13149-0.55786 0-0.41736 0.41736-0.19885 5.4985-0.27893 5.5786-0.0657 0.0657-0.21318-0.0657-0.27892 0-0.26777 0.26776 0.17607 1.3214 0 1.6736-0.41942 0.83884-0.83679 2.7983-0.83679 3.905 0 0.26451 0.16844 1.5051 0 1.6736-0.0657 0.0658-0.23735-0.0832-0.27893 0-0.12474 0.24948 0.19724 0.63955 0 0.83679-0.0657 0.0657-0.21318-0.0658-0.27892 0-0.39785 0.39784-0.65005 1.9501-0.83679 2.5104-0.0882 0.26461 0.12474 0.5873 0 0.83678-0.24622 0.49244-0.52956 0.9338-0.83678 1.3946-0.16309 0.24464-0.071 0.62888-0.27893 0.83679-0.13946 0.13946-0.41839 0.13946-0.55786 0.27892-0.2561 0.25611-0.58456 1.1424-0.83678 1.3946-0.0657 0.0658-0.21318-0.0657-0.27893 0-0.27511 0.27512-0.35458 0.91244-0.55785 1.1157-0.093 0.093-0.74381 0.18596-0.83679 0.27893-0.23244 0.23244-0.32541 0.60435-0.55785 0.83679-0.13149 0.13148-0.42637-0.13149-0.55786 0-0.13149 0.13148 0.13149 0.42636 0 0.55785-0.093 0.093-0.74381 0.18595-0.83678 0.27893-0.0658 0.0657 0.0657 0.21318 0 0.27893-0.27893 0.27893-1.3946-0.27893-1.6736 0-0.0657 0.0657 0.0657 0.21318 0 0.27893-0.37359 0.37359-5.283 0.27892-6.4153 0.27892-4.4061 0-8.9633-0.27141-13.11 0.55786-0.39572 0.0791-3.393 0.0459-3.6261 0.27893-0.0657 0.0657 0.0658 0.21318 0 0.27893-0.51137 0.51136-2.2779-0.23244-2.7893 0.27892-0.0657 0.0657 0.0657 0.21319 0 0.27893-0.13149 0.13149-0.42637-0.13149-0.55785 0-0.23244 0.23244-0.32542 0.60435-0.55786 0.83679-0.0657 0.0657-0.21318-0.0657-0.27893 0-0.23244 0.23244-0.0465 0.88327-0.27893 1.1157-0.13946 0.13946-0.41839 0.13946-0.55785 0.27892-0.13149 0.13149 0.13149 0.42637 0 0.55786-0.13947 0.13946-0.41839 0.13946-0.55786 0.27893-0.13148 0.13149 0.13149 0.42637 0 0.55785-0.13148 0.13149-0.42636-0.13148-0.55785 0-0.18595 0.18596-0.093 0.65084-0.27893 0.83679-0.093 0.093-0.74381 0.18595-0.83678 0.27893-0.13767 0.13766-0.42816 0.77193-0.55786 0.83678-0.16632 0.0832-0.38145-0.0588-0.55786 0-0.0794 0.0265-1.099 0.54109-1.1157 0.55786-0.0657 0.0657 0.0657 0.21318 0 0.27892-0.13149 0.13149-0.42637-0.13148-0.55785 0-0.0658 0.0658 0.0657 0.21319 0 0.27893-0.13303 0.13303-4.2599 0.038-4.7418 0.27893-0.57531 0.28765-1.1387 0.56935-1.6736 0.83678-0.16632 0.0832-0.42637-0.13148-0.55786 0-0.06574 0.0657 0.08316 0.23735 0 0.27893-0.16632 0.0832-0.39154-0.0832-0.55786 0-0.18595 0.093-0.09298 0.46488-0.27893 0.55786-0.33876 0.16938-0.83636 0.55743-1.1157 0.83678-0.18595 0.18595-0.09298 0.65083-0.27893 0.83679-0.13918 0.13917-1.1762 0-1.3946 0-0.8995 0-6.4511-0.26107-6.9732 0-0.57269 0.28634-0.34273 0.27892-1.1157 0.27892-0.35476 0-2.0056-0.2258-2.2314 0-0.13149 0.13149 0.13149 0.42637 0 0.55786-0.06574 0.0657-0.21318-0.0658-0.27893 0-0.45427 0.45427 0.27893 2.1307 0.27893 2.5104 0 0.2184-0.13918 1.2555 0 1.3946 0.41142 0.41142 1.0527 0.77382 1.3946 1.1157 0.19223 0.19223 0.02007 0.70736 0.27893 0.83679 0.16632 0.0832 0.39154-0.0832 0.55786 0 0.08316 0.0416-0.06574 0.21318 0 0.27892 0.13946 0.13947 0.41839 0.13947 0.55786 0.27893 0.13149 0.13149-0.13149 0.42637 0 0.55786 0.06574 0.0657 0.21318-0.0658 0.27893 0 0.05213 0.0521 0.50812 1.8033 0.55786 1.9525 0.1677 0.50309 0.93382 0.6549 1.1157 0.83679 0.18605 0.18604-0.18605 0.37181 0 0.55785 0.13149 0.13149 0.42637-0.13149 0.55786 0 0.06574 0.0658-0.06574 0.21319 0 0.27893 0.13946 0.13946 0.41839 0.13946 0.55786 0.27893 0.13149 0.13149-0.13149 0.42637 0 0.55785 0.06574 0.0658 0.21318-0.0657 0.27893 0 0.09801 0.098 0.75212 2.7046 0.83678 2.7893 0.24543 0.24543 0.93287 0.65395 1.1157 0.83679 0.06881 0.0688 0.06881 1.6048 0 1.6736-0.26125 0.26125-0.73251 0.64519-1.1157 0.83679-0.16632 0.0832-0.42637-0.13149-0.55786 0-0.06574 0.0657 0.06574 0.21318 0 0.27893-0.25205 0.25205-1.1371 0.60059-1.3946 1.1157-0.16164 0.32327-0.49984 0.77877-0.83678 1.1157-0.06574 0.0657-0.21318-0.0657-0.27893 0-0.29583 0.29583 0.01024 0.83166-0.55786 1.1157-0.08316 0.0416-0.23735-0.0832-0.27893 0-0.12474 0.24948 0.19723 0.63955 0 0.83679-0.13946 0.13946-0.41839 0.13946-0.55786 0.27892-0.13149 0.13149 0.13149 0.42637 0 0.55786-0.33378 0.33378-0.509-0.0977-0.83678 0.55786-0.0842 0.1684 0.12894 0.70784 0 0.83678-0.06574 0.0657-0.21318-0.0657-0.27893 0-0.41142 0.41141 0.06297 1.8895-0.27893 2.2314-0.13766 0.13766-0.77194 0.42816-0.83678 0.55786-0.24564 0.49127 0.02156 0.53629-0.27893 0.83678-1.236 1.236-4.4628-0.27901-5.0207 0.27893-0.13149 0.13149 0.08316 0.39154 0 0.55786-0.0588 0.1176-0.22012 0.16132-0.27893 0.27892-0.21556 0.43112 0.17668 7.3266 0.27893 7.5311 0.58042 1.1608-0.01926-0.29819 0.55786 0.27893 0.06574 0.0657-0.06574 0.21318 0 0.27892 0.06574 0.0658 0.18595 0 0.27893 0 1.6165 0 0.53855-0.81747 1.1157-1.3946 0.10868-0.10868 0.9455 0 1.1157 0 0.18595 0 0.42637-0.13148 0.55786 0 0.28143 0.28143 1.1144 1.392 1.3946 1.9525 0.08316 0.16632-0.13149 0.42637 0 0.55786 0.06574 0.0657 0.23735-0.0832 0.27893 0 0.14876 0.29752-0.14876 0.81818 0 1.1157 0.11761 0.23521 0.44025 0.32264 0.55786 0.55785 0.2427 0.4854 0.61834 0.39991 0.83678 0.83679 0.08316 0.16632-0.13149 0.42637 0 0.55785 1.0886 1.0886 0.1498-0.0646 0.83678 0.27893 0.18595 0.093 0.09298 0.46488 0.27893 0.55786 0.12982 0.0649 1.3191 0.45617 1.6736 0.27892 0.34021-0.1701 2.3916-0.67658 2.7893-0.27892 0.46488 0.46488-0.46488 2.3244 0 2.7893 0.09298 0.093 0.74381 0.18595 0.83678 0.27892 0.57711 0.57712-0.8819-0.0226 0.27893 0.55786 1.9016 0.95079 7.07 0.0484 8.0889 0.55786 0.41074 0.20537 0.37008 0.37007 0.55786 0.55785 0.61855 0.61855 1.9412 0.26767 2.5104 0.83679 0.0657 0.0657-0.0658 0.21318 0 0.27892 0.41839 0.4184 1.813-0.13946 2.2314 0.27893 0.0657 0.0658-0.0832 0.23735 0 0.27893 0.10216 0.0511 0.99837-0.11734 1.1157 0 0.0657 0.0657-0.0832 0.23735 0 0.27893 0.10217 0.0511 0.99838-0.11734 1.1157 0 0.0657 0.0657-0.0832 0.23735 0 0.27893 0.30165 0.15082 1.4322-0.24136 1.6736 0 0.0657 0.0657-0.0657 0.21318 0 0.27892 0.0181 0.0181 4.8757 0 5.0207 0 0.23856 0 3.8842 0.0208 3.905 0 0.28435-0.28434-0.30713-0.54375 0.27893-0.83678 0.16632-0.0832 0.39154 0.0832 0.55786 0 0.33058-0.16529 1.9169-1.0801 1.9525-1.1157 0.13149-0.13149-0.0832-0.39154 0-0.55786 0.22988-0.45975 0.33311-0.94514 0.55786-1.3946 0.29303-0.58606 0.55244 5e-3 0.83678-0.27893 0.0658-0.0657-0.0657-0.21318 0-0.27892 0.39645-0.39645 1.3415-0.55786 1.9525-0.55786 1.4964 0 4.6804-0.39235 5.8575 0 0.59261 0.19754 3.341 1.3886 3.6261 1.6736 0.13149 0.13149-0.13149 0.42637 0 0.55785 0.13946 0.13947 0.69732-0.13946 0.83678 0 0.0658 0.0657-0.0657 0.21319 0 0.27893 0.3321 0.3321 4.9592 0.21746 5.0207 0.27893 0.0657 0.0657-0.0658 0.21318 0 0.27893 0.0781 0.0781 1.2805 0.0571 1.3946 0 0.41073-0.20537 0.37007-0.37008 0.55785-0.55786 0.13149-0.13149 0.42637 0.13149 0.55786 0 0.0657-0.0657-0.0657-0.21318 0-0.27893 0.43898-0.43898 1.1992-0.36242 1.6736-0.83678 0.0658-0.0657-0.0657-0.21318 0-0.27893 0.0658-0.0657 0.21319 0.0658 0.27893 0 0.0658-0.0657-0.0657-0.21318 0-0.27893 0.0658-0.0657 0.21319 0.0658 0.27893 0 0.3636-0.36359 0.51836-0.75778 0.83678-1.3946 0.22739-0.45476 0.87817-0.59923 1.1157-0.83678 0.13148-0.13149-0.13149-0.42637 0-0.55786 0.0657-0.0657 0.21318 0.0657 0.27892 0 0.13149-0.13148-0.0832-0.39153 0-0.55785 0.0588-0.11761 0.22013-0.16132 0.27893-0.27893 0.0842-0.16841-0.12894-0.70784 0-0.83678 0.13149-0.13149 0.42637 0.13149 0.55786 0 0.22693-0.22693-0.22671-8.1411 0-8.3678 0.0657-0.0657 0.21318 0.0657 0.27893 0 0.0766-0.0766 0.15937-1.3149 0.27892-1.6736 0.70455-2.1136-0.10072 0.10072 0.55786-0.55785 0.47258-0.47258 0.69086-1.3688 0.83678-1.9525z" style="fill:#ff0;stroke-width:1px;stroke:#000"/>
 </g>
</svg>
